<svg width="15" height="20" viewBox="0 0 15 20" fill="none" xmlns="http://www.w3.org/2000/svg">
<path fill-rule="evenodd" clip-rule="evenodd" d="M13.4033 0.833374H5.5234C4.65748 0.833374 3.95687 1.58337 3.95687 2.50004H11.8289C12.6948 2.50004 13.4033 3.25004 13.4033 4.16671V15L14.9777 15.8334V2.50004C14.9777 1.58337 14.2692 0.833374 13.4033 0.833374ZM10.2546 5.83337V16.6417L6.94044 15.1334L6.31855 14.85L5.69667 15.1334L2.38255 16.6417V5.83337H10.2546ZM2.38251 4.16671H10.2545C11.1204 4.16671 11.8289 4.91671 11.8289 5.83337V19.1667L6.31851 16.6667L0.808105 19.1667V5.83337C0.808105 4.91671 1.51659 4.16671 2.38251 4.16671Z" fill="#828282"/>
</svg>
